<svg width="8" height="15" viewBox="0 0 8 15" fill="none" xmlns="http://www.w3.org/2000/svg">
<path d="M4.48211 14.5627C4.40255 14.6964 4.29153 14.8068 4.15956 14.8833C4.02759 14.9598 3.87906 15 3.72802 15C3.57698 15 3.42844 14.9598 3.29648 14.8833C3.16451 14.8068 3.05349 14.6964 2.97392 14.5627L0.134981 9.83758C0.0508865 9.69743 0.00441433 9.53634 0.000407286 9.37112C-0.00359975 9.20589 0.0350048 9.04257 0.112199 8.89817C0.189392 8.75378 0.30235 8.63359 0.439301 8.55012C0.576252 8.46666 0.732185 8.42299 0.89085 8.42365H6.56874C6.7268 8.42431 6.88182 8.46894 7.01777 8.55294C7.15372 8.63693 7.26566 8.75724 7.34201 8.90141C7.41836 9.04558 7.45634 9.20838 7.45204 9.37297C7.44773 9.53756 7.40128 9.69796 7.31751 9.83758L4.48211 14.5627Z" fill="#838D94"/>
<path d="M2.97937 0.437317C3.05894 0.303585 3.16996 0.193227 3.30193 0.116697C3.43389 0.0401675 3.58243 0 3.73347 0C3.8845 0 4.03304 0.0401675 4.16501 0.116697C4.29697 0.193227 4.408 0.303585 4.48756 0.437317L7.32651 5.16242C7.4106 5.30258 7.45707 5.46366 7.46108 5.62888C7.46509 5.79411 7.42648 5.95743 7.34929 6.10183C7.27209 6.24622 7.15914 6.36642 7.02218 6.44988C6.88523 6.53334 6.7293 6.57701 6.57064 6.57635H0.892749C0.734686 6.57569 0.579662 6.53106 0.443712 6.44706C0.307762 6.36307 0.195824 6.24276 0.119476 6.09859C0.043128 5.95442 0.00514346 5.79162 0.00945122 5.62703C0.013759 5.46245 0.0602026 5.30204 0.143978 5.16242L2.97937 0.437317Z" fill="#838D94"/>
</svg>
