<svg width="103" height="24" viewBox="0 0 103 24" fill="none" xmlns="http://www.w3.org/2000/svg">
<path d="M0 1.39726H6.67252C10.9264 1.39726 14.4405 3.86386 14.4405 9.49569V10.6791C14.4405 16.3537 11.1541 18.9058 6.80056 18.9058H0V1.39726ZM3.7275 4.57675V15.7121H6.58715C9.00577 15.7121 10.6277 14.1295 10.6277 10.6078V9.68104C10.6277 6.15936 8.9204 4.57675 6.45911 4.57675H3.7275ZM16.4181 4.74784H19.4058L19.8895 8.04139C20.4586 5.80292 21.9098 4.60526 24.5418 4.60526H25.4665V8.38358H23.93C20.8996 8.38358 20.1598 9.43865 20.1598 12.4328V18.9486H16.475V4.74784H16.4181ZM26.2064 12.1334V11.7342C26.2064 6.98631 29.2367 4.3914 33.3626 4.3914C37.5738 4.3914 40.5188 6.98631 40.5188 11.7342V12.1334C40.5188 16.7957 37.6592 19.305 33.3626 19.305C28.7957 19.2623 26.2064 16.8099 26.2064 12.1334ZM36.7486 12.0906V11.7342C36.7486 9.09647 35.4255 7.51385 33.3199 7.51385C31.257 7.51385 29.8912 8.96815 29.8912 11.7342V12.0906C29.8912 14.6427 31.2143 16.097 33.3199 16.097C35.4255 16.0543 36.7486 14.6427 36.7486 12.0906ZM42.4537 4.74784H45.5268L45.8825 7.42831C46.6223 5.63182 48.2015 4.3914 50.5347 4.3914C54.1342 4.3914 56.5101 6.98631 56.5101 11.7912V12.1904C56.5101 16.8527 53.8781 19.3193 50.5347 19.3193C48.3011 19.3193 46.7645 18.307 46.0105 16.6816V23.8533H42.411L42.4537 4.74784ZM52.7684 12.0906V11.7769C52.7684 8.95389 51.3172 7.55662 49.3823 7.55662C47.3194 7.55662 45.9536 9.13924 45.9536 11.7769V12.0478C45.9536 14.5572 47.2767 16.1398 49.3397 16.1398C51.4595 16.097 52.7684 14.7425 52.7684 12.0906ZM61.9591 16.3252L61.6461 18.9201H58.4877V0H62.0872V7.25721C62.8839 5.4037 64.4631 4.3914 66.6967 4.3914C70.0828 4.43417 72.5868 6.77245 72.5868 11.4775V11.9195C72.5868 16.6246 70.2108 19.3193 66.6114 19.3193C64.2355 19.2623 62.6989 18.1644 61.9591 16.3252ZM68.8024 11.9195V11.5631C68.8024 8.96815 67.3939 7.51385 65.4163 7.51385C63.396 7.51385 61.9876 9.13924 61.9876 11.6058V11.9195C61.9876 14.5572 63.3534 16.097 65.3736 16.097C67.5361 16.097 68.8024 14.7425 68.8024 11.9195ZM74.166 12.1334V11.7342C74.166 6.98631 77.1964 4.3914 81.3222 4.3914C85.5334 4.3914 88.4785 6.98631 88.4785 11.7342V12.1334C88.4785 16.7957 85.5761 19.305 81.3222 19.305C76.7553 19.2623 74.166 16.8099 74.166 12.1334ZM84.7367 12.0906V11.7342C84.7367 9.09647 83.4136 7.51385 81.308 7.51385C79.2451 7.51385 77.8792 8.96815 77.8792 11.7342V12.0906C77.8792 14.6427 79.2024 16.097 81.308 16.097C83.4278 16.0543 84.7367 14.6427 84.7367 12.0906ZM93.3015 11.5631L88.3362 4.74784H92.5901L95.4497 9.01092L98.3521 4.74784H102.563L97.5269 11.5203L102.834 18.9201H98.6651L95.4213 14.215L92.2629 18.9201H87.9094L93.3015 11.5631Z" fill="black"/>
</svg>
